General                          : ChattChitto RG - Movies [R2L]
==========
Complete name                    : All Star Superman 2011 720p BRRip H264 [ChattChitto RG]
Format                           : MPEG-4
Format profile                   : Base Media
Codec ID                         : isom
File size                        : 1.32 GiB
Duration                         : 1h 16mn
Overall bit rate                 : 2 459 Kbps
Encoded date                     : UTC 2011-02-27 06:48:48

Video
==========
ID                               : 1
Format                           : AVC
Format/Info                      : Advanced Video Codec
Format profile                   : High@L4.0
Format settings, CABAC           : Yes
Format settings, ReFrames        : 4 frames
Codec ID                         : avc1
Codec ID/Info                    : Advanced Video Coding
Duration                         : 1h 16mn
Bit rate mode                    : Variable
Bit rate                         : 2 100 Kbps
Maximum bit rate                 : 30.1 Mbps
Width                            : 1 280 pixels
Height                           : 720 pixels
Display aspect ratio             : 16:9
Frame rate mode                  : Constant
Frame rate                       : 23.976 fps
Resolution                       : 24 bits
Colorimetry                      : 4:2:0
Scan type                        : Progressive
Bits/(Pixel*Frame)               : 0.095
Stream size                      : 1.12 GiB (85%)
Writing library                  : x264 core 84 r1400M 20fa784
Encoded date                     : UTC 2011-02-27 06:21:08

Audio
==========
ID                               : 2
Format                           : AAC
Format/Info                      : Advanced Audio Codec
Format version                   : Version 4
Format profile                   : LC
Format settings, SBR             : No
Codec ID                         : 40
Duration                         : 1h 16mn
Bit rate mode                    : Variable
Bit rate                         : 352.8 Kbps
Maximum bit rate                 : 429 Kbps
Channel(s)                       : 6 channels
Channel positions                : Front: L C R, Rear: L R, LFE
Sampling rate                    : 48.0 KHz
Resolution                       : 16 bits
Stream size                      : 194 MiB (14%)
Encoded date                     : UTC 2011-02-27 06:49:24

Subtitles                        : English | Portuguese


----------------------------------------------------
IMDB Link: http://www.imdb.com/title/tt1699114/
----------------------------------------------------



Screen Shots:
==============    
http://chattchitto.net/chattchittorg/movies/brrip/2011/all_star_superman/3.png 
http://chattchitto.net/chattchittorg/movies/brrip/2011/all_star_superman/4.png 
http://chattchitto.net/chattchittorg/movies/brrip/2011/all_star_superman/5.png 
http://chattchitto.net/chattchittorg/movies/brrip/2011/all_star_superman/6.png 
http://chattchitto.net/chattchittorg/movies/brrip/2011/all_star_superman/7.png



ScreenShots Comparison:
=========================  
http://screenshotcomparison.com/comparison/31989



Plot:
======
Fueled by hatred and jealousy, Lex Luthor masterminds an elaborate plot to kill the Man of Steel – and it works. Poisoned by solar radiation, Superman is dying. With weeks to live, he fulfills his life’s dreams – especially revealing his true identity to Lois Lane – until Luthor proclaims his ultimate plan to control the world with no alien hero to stop him. Powers fading, Superman engages in a spectacular deadly battle with Luthor that could truly trigger the end of Earth’s Greatest Protector



Release Info:
==============
original name .... : All Star Superman 2011 720p BRRip H264 [ChattChitto RG]
ripper.............: CHD
encoder............: Recalled2Life (R2L)
video codec........: H264/.MP4
video bitrate......: 2100 Kbps
audio codec........: AAC-LC
aspect ratio.......: 16:9
resolution.........: 1280 x 720
genre..............: Animation
runtime............: 1h 16mn
language...........: English
rating.............: PG
subtitles..........: English | Portuguese
sample.............: Yes
2ch Audio..........: 2ch Audio for XBox Viewers
Compatibility .....: XBox | PS3 | WD Live



Source:
========
All.Star.Superman.2011.BluRay.1080p.DTS.x264-CHD  THANKS!



Notes:
=======
ChattChitto RG Encourages Burning this Film with ConvertXtoDVD and Playing with VLC media player.
XBox 360 | PS3 | WD Live - Compatible 
Enhanced for your viewing pleasure ;)